<svg id="Layer_2" data-name="Layer 2" xmlns="http://www.w3.org/2000/svg" viewBox="0 0 97 63"><defs><style>.cls-1{fill:#00386f;}.cls-2{fill:#006fdd;}</style></defs><title>Blue Black</title><path class="cls-1" d="M21.65,6h5.87L42.21,55H35.06L24.58,15.77,14.1,55H7ZM14.74,38H34.9v6.26H14.74Z"/><path class="cls-2" d="M18.65,8h5.87L39.21,57H32.06L21.58,17.77,11.1,57H4ZM11.74,40H31.9v6.26H11.74Z"/><path d="M37.43,9.61h1.9v14h-1.9Zm1,0h6.55v1.81H38.39Zm0,6.16h5.78v1.8H38.39Zm0,6.06h6.55v1.8H38.39Z"/><path d="M47.06,9.61H49v14h-1.9Zm1,12.22h6.43v1.8H48Z"/><path d="M43,25.75h1.89v14H43Zm1.48,7.81,4.91-7.81h2.2L44.22,36.81Zm1.86-1.31,1.39-1.43,4.38,8.89H49.83Z"/><path d="M56.64,25.75h1.67l4.18,14h-2l-3-11.17-3,11.17h-2Zm-2,9.12h5.74v1.79H54.67Z"/><path d="M66.05,39.71H64.16v-14h1.89Z"/><path d="M77.44,25.75h1.71v14H77.36V29.2l.13.61L74.58,37.6H73.31L70.39,30l.16-.81V39.71H68.73v-14h1.75l3.46,9Z"/><path d="M83.66,39.33a3.56,3.56,0,0,1-1.45-1.5,4.89,4.89,0,0,1-.51-2.29V29.93a4.91,4.91,0,0,1,.51-2.3,3.56,3.56,0,0,1,1.45-1.5,5,5,0,0,1,4.44,0,3.58,3.58,0,0,1,1.46,1.5,4.91,4.91,0,0,1,.51,2.3v5.61a4.89,4.89,0,0,1-.51,2.29,3.58,3.58,0,0,1-1.46,1.5,5,5,0,0,1-4.44,0Zm3.43-1.62a1.92,1.92,0,0,0,.78-.84,2.72,2.72,0,0,0,.28-1.28V29.87a2.72,2.72,0,0,0-.28-1.28,1.9,1.9,0,0,0-.78-.83,2.36,2.36,0,0,0-1.21-.3,2.32,2.32,0,0,0-1.2.3,1.92,1.92,0,0,0-.79.83,2.72,2.72,0,0,0-.28,1.28v5.72a2.72,2.72,0,0,0,.28,1.28,2,2,0,0,0,.79.84,2.42,2.42,0,0,0,1.2.29A2.46,2.46,0,0,0,87.09,37.71Z"/><path d="M52.21,43.82h.71v7.37h-.7V45.26l.05.33-1.41,4.58h-.62l-1.41-4.48.05-.43v5.93h-.7V43.82h.71l1.66,5.37Z"/><path d="M54.62,51.06a1.31,1.31,0,0,1-.54-.6,2.07,2.07,0,0,1-.19-.94V47.69a2.48,2.48,0,0,1,.18-1,1.36,1.36,0,0,1,.54-.64,1.59,1.59,0,0,1,.84-.21,1.62,1.62,0,0,1,.85.2,1.27,1.27,0,0,1,.54.58,2.2,2.2,0,0,1,.18.93v1.31H54.33v-.68h2v-.61a1.23,1.23,0,0,0-.22-.78.77.77,0,0,0-.62-.27.72.72,0,0,0-.62.29,1.39,1.39,0,0,0-.21.83v1.9a1.18,1.18,0,0,0,.22.77.79.79,0,0,0,.65.28.82.82,0,0,0,.6-.22.83.83,0,0,0,.22-.62v0H57v0a1.5,1.5,0,0,1-.41,1.12,1.58,1.58,0,0,1-1.14.4A1.7,1.7,0,0,1,54.62,51.06Z"/><path d="M58.56,51.1a1.17,1.17,0,0,1-.45-.55A2,2,0,0,1,58,49.7V47.47a2.13,2.13,0,0,1,.16-.88,1.15,1.15,0,0,1,.45-.56,1.23,1.23,0,0,1,.71-.19,1.14,1.14,0,0,1,.7.24,1.65,1.65,0,0,1,.52.68l-.1.72a1.44,1.44,0,0,0-.1-.54.84.84,0,0,0-.29-.35.88.88,0,0,0-.47-.11.74.74,0,0,0-.62.26,1.14,1.14,0,0,0-.23.75V49.7a1,1,0,0,0,.23.69.76.76,0,0,0,.62.25,1,1,0,0,0,.47-.11.81.81,0,0,0,.29-.34,1.39,1.39,0,0,0,.1-.53l.07.7A1.4,1.4,0,0,1,60,51a1.18,1.18,0,0,1-.73.24A1.31,1.31,0,0,1,58.56,51.1Zm1.83-7.28h.73v7.37h-.73Z"/><path d="M62.34,44.11h.73v.73h-.73Zm0,1.82h.73v5.26h-.73Z"/><path d="M64.56,50.9a1.59,1.59,0,0,1-.35-1.11,1.92,1.92,0,0,1,.41-1.33A1.58,1.58,0,0,1,65.84,48h.93l.08.52h-1a.87.87,0,0,0-.72.31,1.52,1.52,0,0,0-.24.93,1,1,0,0,0,.22.71.88.88,0,0,0,.66.23,1,1,0,0,0,.73-.26,1.09,1.09,0,0,0,.24-.77l.11.44a1.38,1.38,0,0,1-.15.62.84.84,0,0,1-.41.38,1.55,1.55,0,0,1-.69.13A1.36,1.36,0,0,1,64.56,50.9Zm2.17-3.56a.86.86,0,0,0-.24-.66.88.88,0,0,0-.66-.24.73.73,0,0,0-.59.24.93.93,0,0,0-.21.66h-.71a1.47,1.47,0,0,1,.4-1.11,1.57,1.57,0,0,1,1.13-.39,1.93,1.93,0,0,1,.84.17,1.23,1.23,0,0,1,.54.52,1.67,1.67,0,0,1,.18.81v3.85h-.68Z"/><path d="M71.31,51.08a1.25,1.25,0,0,1-.6-.58,2.13,2.13,0,0,1-.2-1v-.37h.72v.37a1,1,0,0,0,.27.79,1.08,1.08,0,0,0,.81.27,1,1,0,0,0,.78-.27,1,1,0,0,0,.27-.79V49.1a1.11,1.11,0,0,0-.16-.6,1.64,1.64,0,0,0-.4-.43,6.68,6.68,0,0,0-.64-.36h0l-.07,0a7.4,7.4,0,0,1-.8-.45,1.8,1.8,0,0,1-.51-.55,1.56,1.56,0,0,1-.21-.84v-.36a2.06,2.06,0,0,1,.19-1,1.23,1.23,0,0,1,.6-.57,2.6,2.6,0,0,1,2,0,1.28,1.28,0,0,1,.58.57,2.15,2.15,0,0,1,.2,1v.38h-.72v-.38a1.11,1.11,0,0,0-.26-.8,1,1,0,0,0-.76-.26,1.13,1.13,0,0,0-.8.25,1,1,0,0,0-.26.76v.35a1,1,0,0,0,.16.58,1.6,1.6,0,0,0,.42.4c.16.1.39.22.67.36l.08,0,.08,0,0,0,0,0a4,4,0,0,1,.7.43,1.64,1.64,0,0,1,.47.57,1.72,1.72,0,0,1,.19.85v.47a2.13,2.13,0,0,1-.2,1,1.25,1.25,0,0,1-.59.57,2.19,2.19,0,0,1-1,.2A2.38,2.38,0,0,1,71.31,51.08Z"/><path d="M75.09,43.82h.73v7.37h-.73Zm2.48,3.65a1.07,1.07,0,0,0-.21-.72.86.86,0,0,0-.66-.23.78.78,0,0,0-.66.26,1.21,1.21,0,0,0-.22.8l-.11-.87a1.56,1.56,0,0,1,.5-.66,1.33,1.33,0,0,1,.76-.21,1.21,1.21,0,0,1,1,.4,2,2,0,0,1,.33,1.23v3.72h-.73Z"/><path d="M80,51.09a1.19,1.19,0,0,1-.51-.53,1.74,1.74,0,0,1-.18-.82v-2.4a1.67,1.67,0,0,1,.18-.81A1.17,1.17,0,0,1,80,46a2.06,2.06,0,0,1,1.64,0,1.17,1.17,0,0,1,.51.52,1.67,1.67,0,0,1,.18.81v2.41a1.74,1.74,0,0,1-.18.82,1.17,1.17,0,0,1-.51.52,2,2,0,0,1-1.64,0Zm1.4-.72a.91.91,0,0,0,.2-.62V47.34a.85.85,0,0,0-.21-.61.77.77,0,0,0-.57-.21.78.78,0,0,0-.58.21.9.9,0,0,0-.2.61v2.41a.91.91,0,0,0,.2.62.87.87,0,0,0,1.16,0Z"/><path d="M82.85,45.93h.67l.88,4.26.89-4.26h.51l.89,4.26.88-4.26h.67L87,51.19h-.68l-.8-3.64-.81,3.64h-.68Z"/></svg>